<?xml version="1.0" standalone="no"?>
<!DOCTYPE svg PUBLIC "-//W3C//DTD SVG 20010904//EN"
 "http://www.w3.org/TR/2001/REC-SVG-20010904/DTD/svg10.dtd">
<svg version="1.0" xmlns="http://www.w3.org/2000/svg"
 width="500.000000pt" height="500.000000pt" viewBox="0 0 500.000000 500.000000"
 preserveAspectRatio="xMidYMid meet">
<metadata>
Created by potrace 1.11, written by Peter Selinger 2001-2013
</metadata>
<g transform="translate(0.000000,500.000000) scale(0.100000,-0.100000)"
fill="#000000" stroke="none">
<path d="M0 2500 l0 -2500 2500 0 2500 0 0 2500 0 2500 -2500 0 -2500 0 0
-2500z m2259 720 l578 -715 -36 -36 c-20 -20 -433 -377 -918 -793 l-882 -756
-291 341 -290 341 123 101 c67 56 310 257 540 446 358 295 415 346 405 359 -7
9 -181 209 -385 445 -205 236 -373 433 -373 437 0 4 187 161 416 349 l417 341
58 -72 c32 -40 319 -395 638 -788z m1780 0 l578 -715 -36 -36 c-20 -20 -433
-377 -918 -793 l-882 -756 -291 341 -290 341 123 101 c67 56 310 257 540 446
358 295 415 346 405 359 -7 9 -181 209 -385 445 -205 236 -373 433 -373 437 0
4 187 161 416 349 l417 341 58 -72 c32 -40 319 -395 638 -788z"/>
</g>
</svg>
