<?xml version="1.0" standalone="no"?>
<!DOCTYPE svg PUBLIC "-//W3C//DTD SVG 20010904//EN"
 "http://www.w3.org/TR/2001/REC-SVG-20010904/DTD/svg10.dtd">
<svg version="1.0" xmlns="http://www.w3.org/2000/svg"
 width="600.000000pt" height="600.000000pt" viewBox="0 0 600.000000 600.000000"
 preserveAspectRatio="xMidYMid meet">
<metadata>
Created by potrace 1.11, written by Peter Selinger 2001-2013
</metadata>
<g transform="translate(0.000000,600.000000) scale(0.100000,-0.100000)"
fill="#000000" stroke="none">
<path d="M0 3000 l0 -3000 3000 0 3000 0 0 3000 0 3000 -3000 0 -3000 0 0
-3000z m2701 1303 l968 -678 3 -158 3 -158 299 211 c278 195 303 210 343 210
l43 0 0 -429 0 -430 -355 -248 c-195 -136 -355 -250 -355 -253 0 -3 160 -117
355 -253 l355 -249 0 -429 0 -429 -40 0 c-37 0 -76 25 -416 263 -206 144 -568
397 -805 562 l-429 300 0 108 c0 59 -3 107 -6 107 -3 0 -35 -21 -72 -47 -37
-26 -110 -77 -162 -113 -52 -36 -231 -161 -397 -278 -296 -208 -304 -212 -353
-212 l-50 0 0 518 0 517 368 258 c203 142 397 278 431 303 l62 45 -430 302
-431 301 0 518 0 518 51 0 52 0 968 -677z"/>
</g>
</svg>
